<svg width="24" height="24" viewBox="0 0 24 24" fill="none" xmlns="http://www.w3.org/2000/svg">
<path d="M22.625 6.68C22.055 6.14 21.295 5.85 20.495 5.85H14.215L13.895 4.9C13.695 4.34 13.305 3.86 12.795 3.52C12.285 3.18 11.685 3 11.055 3H6.49499C5.70499 3 4.94499 3.3 4.37499 3.84C3.81499 4.37 3.495 5.09 3.495 5.85V9.96H5.49499V5.85C5.49499 5.59 5.605 5.35 5.795 5.18C5.985 5 6.23499 4.9 6.49499 4.9H11.055C11.265 4.9 11.475 4.96 11.645 5.07C11.815 5.19 11.945 5.35 12.005 5.54L12.545 7.1C12.615 7.28 12.745 7.45 12.915 7.56C13.085 7.68 13.285 7.74 13.495 7.74H20.495C20.765 7.74 21.015 7.84 21.205 8.02C21.395 8.2 21.495 8.44 21.495 8.69V18.16C21.495 18.41 21.395 18.65 21.205 18.83C21.015 19.01 20.765 19.11 20.495 19.11H6.49499C6.23499 19.11 5.985 19.01 5.795 18.83C5.605 18.65 5.49499 18.41 5.49499 18.16V15.99H3.495V18.16C3.495 18.91 3.81499 19.64 4.37499 20.17C4.94499 20.7 5.70499 21 6.49499 21H20.495C21.295 21 22.055 20.7 22.625 20.17C23.185 19.64 23.495 18.91 23.495 18.16V8.69C23.495 7.93 23.185 7.21 22.625 6.68Z" fill="currentColor"/>
<path d="M8.85488 15.6398C8.71488 15.7898 8.64488 15.9998 8.64488 16.2198C8.64488 16.4398 8.72488 16.6398 8.85488 16.7998C8.99488 16.9498 9.17488 17.0398 9.36488 17.0398C9.55488 17.0398 9.73488 16.9498 9.87488 16.7998L12.7449 13.5598C12.8149 13.4798 12.8649 13.3898 12.8949 13.2898C12.9349 13.1898 12.9549 13.0898 12.9549 12.9798C12.9549 12.8698 12.9349 12.7698 12.8949 12.6698C12.8649 12.5698 12.8049 12.4798 12.7449 12.3998L9.87488 9.1598C9.73488 9.0098 9.55488 8.9198 9.36488 8.9198C9.17488 8.9198 8.99488 9.0098 8.85488 9.1598C8.78488 9.2398 8.73488 9.3298 8.69488 9.4198C8.65488 9.5098 8.64488 9.6198 8.64488 9.7298C8.64488 9.9498 8.72488 10.1498 8.85488 10.3098L10.5049 12.1598H1.22488C1.03488 12.1598 0.854883 12.2498 0.714883 12.3998C0.584883 12.5498 0.504883 12.7598 0.504883 12.9698C0.504883 13.1798 0.584883 13.3898 0.714883 13.5398C0.844883 13.6898 1.03488 13.7798 1.22488 13.7798H10.5049L8.85488 15.6298V15.6398Z" fill="currentColor"/>
</svg>
