<svg width="418" height="166" viewBox="0 0 418 166" fill="none" xmlns="http://www.w3.org/2000/svg" aria-hidden="true" focusable="false">
    <path fill="currentColor" opacity="0.5" fill-rule="evenodd" clip-rule="evenodd" d="M47.8152 90.8647L47.783 91.614C48.116 91.6283 48.4508 91.6355 48.7872 91.6355H49.7928V90.8855V90.1355H48.7872C48.4722 90.1355 48.1589 90.1287 47.8474 90.1154L47.8152 90.8647ZM45.8802 90.6974L45.7832 91.4411C45.115 91.354 44.4559 91.2381 43.807 91.0949L43.9686 90.3625L44.1303 89.6301C44.7366 89.764 45.3526 89.8722 45.9772 89.9537L45.8802 90.6974ZM42.0942 89.8615L41.8689 90.5768C41.2277 90.3748 40.5987 90.1455 39.9831 89.8903L40.2704 89.1975L40.5577 88.5047C41.1329 88.7432 41.7206 88.9574 42.3196 89.1461L42.0942 89.8615ZM38.5117 88.376L38.1648 89.041C37.5701 88.7307 36.9907 88.3953 36.4279 88.036L36.8315 87.4039L37.2351 86.7717C37.7612 87.1076 38.3028 87.4211 38.8586 87.711L38.5117 88.376ZM35.2422 86.289L34.7852 86.8837C34.2542 86.4757 33.7416 86.045 33.2487 85.5931L33.7555 85.0403L34.2623 84.4874C34.7233 84.91 35.2027 85.3128 35.6992 85.6943L35.2422 86.289ZM32.3825 83.6673L31.8297 84.1741C31.3778 83.6812 30.9471 83.1685 30.539 82.6375L31.1337 82.1805L31.7284 81.7236C32.11 82.2201 32.5127 82.6995 32.9353 83.1604L32.3825 83.6673ZM30.0189 80.5912L29.3867 80.9948C29.0274 80.432 28.692 79.8526 28.3818 79.2579L29.0468 78.911L29.7117 78.5642C30.0016 79.12 30.3152 79.6616 30.651 80.1877L30.0189 80.5912ZM28.2253 77.1523L27.5325 77.4396C27.2772 76.8241 27.0479 76.195 26.8459 75.5538L27.5613 75.3285L28.2766 75.1032C28.4653 75.7022 28.6796 76.2899 28.9181 76.865L28.2253 77.1523ZM27.0602 73.4541L26.3279 73.6158C26.1846 72.9669 26.0688 72.3077 25.9816 71.6395L26.7253 71.5425L27.469 71.4455C27.5505 72.0701 27.6588 72.6861 27.7926 73.2924L27.0602 73.4541ZM26.5581 69.6076L25.8088 69.6397C25.7945 69.3068 25.7872 68.972 25.7872 68.6355V67.6083H26.5372H27.2872V68.6355C27.2872 68.9505 27.294 69.2638 27.3074 69.5754L26.5581 69.6076ZM26.5372 65.5538H25.7872V63.4993H26.5372H27.2872V65.5538H26.5372ZM26.5372 61.4448H25.7872V59.3903H26.5372H27.2872V61.4448H26.5372ZM26.5372 57.3358H25.7872V55.2813H26.5372H27.2872V57.3358H26.5372ZM26.5372 53.2267H25.7872V51.1722H26.5372H27.2872V53.2267H26.5372ZM26.5372 49.1177H25.7872V47.0632H26.5372H27.2872V49.1177H26.5372ZM26.5372 45.0087H25.7872V42.9542H26.5372H27.2872V45.0087H26.5372ZM26.5372 40.8997H25.7872V38.8452H26.5372H27.2872V40.8997H26.5372ZM26.5372 36.7907H25.7872V34.7362H26.5372H27.2872V36.7907H26.5372ZM26.5372 32.6817H25.7872V30.6272H26.5372H27.2872V32.6817H26.5372ZM26.5372 28.5727H25.7872V26.5182H26.5372H27.2872V28.5727H26.5372ZM26.5372 24.4637H25.7872V23.4365C25.7872 23.1 25.7945 22.7652 25.8088 22.4322L26.5581 22.4644L27.3074 22.4966C27.294 22.8081 27.2872 23.1215 27.2872 23.4365V24.4637H26.5372ZM26.7253 20.5295L25.9816 20.4325C26.0688 19.7643 26.1846 19.1051 26.3279 18.4562L27.0602 18.6179L27.7926 18.7796C27.6588 19.3858 27.5505 20.0019 27.469 20.6265L26.7253 20.5295ZM27.5613 16.7435L26.8459 16.5181C27.0479 15.877 27.2772 15.2479 27.5325 14.6324L28.2253 14.9197L28.9181 15.2069C28.6796 15.7821 28.4653 16.3698 28.2766 16.9688L27.5613 16.7435ZM29.0468 13.1609L28.3818 12.8141C28.692 12.2194 29.0274 11.6399 29.3867 11.0772L30.0189 11.4808L30.651 11.8843C30.3152 12.4104 30.0016 12.952 29.7117 13.5078L29.0468 13.1609ZM31.1337 9.89144L30.539 9.43444C30.9471 8.90346 31.3778 8.3908 31.8297 7.8979L32.3825 8.40474L32.9353 8.91157C32.5127 9.37253 32.11 9.85193 31.7284 10.3484L31.1337 9.89144ZM33.7555 7.03174L33.2487 6.47892C33.7416 6.02701 34.2542 5.59632 34.7852 5.18829L35.2422 5.78298L35.6992 6.37766C35.2027 6.7592 34.7233 7.16195 34.2623 7.58456L33.7555 7.03174ZM36.8315 4.66811L36.4279 4.03595C36.9907 3.67669 37.5701 3.34124 38.1648 3.03103L38.5117 3.69599L38.8586 4.36096C38.3028 4.65088 37.7612 4.96442 37.2351 5.30028L36.8315 4.66811ZM40.2704 2.87451L39.9831 2.18172C40.5987 1.92645 41.2277 1.69715 41.8689 1.49518L42.0942 2.21053L42.3196 2.92587C41.7206 3.11457 41.1328 3.3288 40.5577 3.56731L40.2704 2.87451ZM43.9686 1.70948L43.807 0.977108C44.4558 0.833865 45.115 0.718025 45.7832 0.630865L45.8802 1.37456L45.9772 2.11826C45.3526 2.19974 44.7366 2.308 44.1303 2.44184L43.9686 1.70948ZM48.7872 0.436462C48.4507 0.436462 48.1159 0.443688 47.783 0.457993L47.8152 1.2073L47.8474 1.95661C48.1589 1.94323 48.4722 1.93646 48.7872 1.93646H49.7928V1.18646V0.436462H48.7872ZM51.8039 1.18646V0.436462H53.815V1.18646V1.93646H51.8039V1.18646ZM55.8261 1.18646V0.436462H57.8372V1.18646V1.93646H55.8261V1.18646ZM59.8483 1.18646V0.436462H61.8594V1.18646V1.93646H59.8483V1.18646ZM63.8705 1.18646V0.436462H65.8817V1.18646V1.93646H63.8705V1.18646ZM67.8928 1.18646V0.436462H69.9039V1.18646V1.93646H67.8928V1.18646ZM71.915 1.18646V0.436462H73.9261V1.18646V1.93646H71.915V1.18646ZM75.9372 1.18646V0.436462H77.9483V1.18646V1.93646H75.9372V1.18646ZM79.9594 1.18646V0.436462H81.9705V1.18646V1.93646H79.9594V1.18646ZM83.9816 1.18646V0.436462H85.9927V1.18646V1.93646H83.9816V1.18646ZM88.0038 1.18646V0.436462H90.015V1.18646V1.93646H88.0038V1.18646ZM92.0261 1.18646V0.436462H94.0372V1.18646V1.93646H92.0261V1.18646ZM96.0483 1.18646V0.436462H98.0594V1.18646V1.93646H96.0483V1.18646ZM100.07 1.18646V0.436462H102.082V1.18646V1.93646H100.07V1.18646ZM104.093 1.18646V0.436462H106.104V1.18646V1.93646H104.093V1.18646ZM108.115 1.18646V0.436462H110.126V1.18646V1.93646H108.115V1.18646ZM112.137 1.18646V0.436462H114.148V1.18646V1.93646H112.137V1.18646ZM116.159 1.18646V0.436462H118.17V1.18646V1.93646H116.159V1.18646ZM120.182 1.18646V0.436462H122.193V1.18646V1.93646H120.182V1.18646ZM124.204 1.18646V0.436462H126.215V1.18646V1.93646H124.204V1.18646ZM128.226 1.18646V0.436462H130.237V1.18646V1.93646H128.226V1.18646ZM132.248 1.18646V0.436462H134.259V1.18646V1.93646H132.248V1.18646ZM136.27 1.18646V0.436462H138.282V1.18646V1.93646H136.27V1.18646ZM140.293 1.18646V0.436462H142.304V1.18646V1.93646H140.293V1.18646ZM144.315 1.18646V0.436462H146.326V1.18646V1.93646H144.315V1.18646ZM148.337 1.18646V0.436462H150.348V1.18646V1.93646H148.337V1.18646ZM152.359 1.18646V0.436462H154.37V1.18646V1.93646H152.359V1.18646ZM156.382 1.18646V0.436462H158.393V1.18646V1.93646H156.382V1.18646ZM160.404 1.18646V0.436462H162.415V1.18646V1.93646H160.404V1.18646ZM164.426 1.18646V0.436462H166.437V1.18646V1.93646H164.426V1.18646ZM168.448 1.18646V0.436462H170.459V1.18646V1.93646H168.448V1.18646ZM172.47 1.18646V0.436462H174.482V1.18646V1.93646H172.47V1.18646ZM176.493 1.18646V0.436462H178.504V1.18646V1.93646H176.493V1.18646ZM180.515 1.18646V0.436462H182.526V1.18646V1.93646H180.515V1.18646ZM184.537 1.18646V0.436462H186.548V1.18646V1.93646H184.537V1.18646ZM188.559 1.18646V0.436462H190.57V1.18646V1.93646H188.559V1.18646ZM192.581 1.18646V0.436462H194.593V1.18646V1.93646H192.581V1.18646ZM196.604 1.18646V0.436462H198.615V1.18646V1.93646H196.604V1.18646ZM200.626 1.18646V0.436462H202.637V1.18646V1.93646H200.626V1.18646ZM204.648 1.18646V0.436462H206.659V1.18646V1.93646H204.648V1.18646ZM208.67 1.18646V0.436462H210.681V1.18646V1.93646H208.67V1.18646ZM212.693 1.18646V0.436462H214.704V1.18646V1.93646H212.693V1.18646ZM216.715 1.18646V0.436462H218.726V1.18646V1.93646H216.715V1.18646ZM220.737 1.18646V0.436462H222.748V1.18646V1.93646H220.737V1.18646ZM224.759 1.18646V0.436462H226.77V1.18646V1.93646H224.759V1.18646ZM228.781 1.18646V0.436462H230.793V1.18646V1.93646H228.781V1.18646ZM232.804 1.18646V0.436462H234.815V1.18646V1.93646H232.804V1.18646ZM236.826 1.18646V0.436462H238.837V1.18646V1.93646H236.826V1.18646ZM240.848 1.18646V0.436462H242.859V1.18646V1.93646H240.848V1.18646ZM244.87 1.18646V0.436462H246.881V1.18646V1.93646H244.87V1.18646ZM248.893 1.18646V0.436462H250.904V1.18646V1.93646H248.893V1.18646ZM252.915 1.18646V0.436462H254.926V1.18646V1.93646H252.915V1.18646ZM256.937 1.18646V0.436462H258.948V1.18646V1.93646H256.937V1.18646ZM260.959 1.18646V0.436462H262.97V1.18646V1.93646H260.959V1.18646ZM264.981 1.18646V0.436462H266.992V1.18646V1.93646H264.981V1.18646ZM269.004 1.18646V0.436462H271.015V1.18646V1.93646H269.004V1.18646ZM273.026 1.18646V0.436462H275.037V1.18646V1.93646H273.026V1.18646ZM277.048 1.18646V0.436462H279.059V1.18646V1.93646H277.048V1.18646ZM281.07 1.18646V0.436462H283.081V1.18646V1.93646H281.07V1.18646ZM285.092 1.18646V0.436462H287.104V1.18646V1.93646H285.092V1.18646ZM289.115 1.18646V0.436462H291.126V1.18646V1.93646H289.115V1.18646ZM293.137 1.18646V0.436462H295.148V1.18646V1.93646H293.137V1.18646ZM297.159 1.18646V0.436462H299.17V1.18646V1.93646H297.159V1.18646ZM301.181 1.18646V0.436462H303.192V1.18646V1.93646H301.181V1.18646ZM305.204 1.18646V0.436462H307.215V1.18646V1.93646H305.204V1.18646ZM309.226 1.18646V0.436462H311.237V1.18646V1.93646H309.226V1.18646ZM313.248 1.18646V0.436462H315.259V1.18646V1.93646H313.248V1.18646ZM317.27 1.18646V0.436462H319.281V1.18646V1.93646H317.27V1.18646ZM321.292 1.18646V0.436462H323.304V1.18646V1.93646H321.292V1.18646ZM325.315 1.18646V0.436462H327.326V1.18646V1.93646H325.315V1.18646ZM329.337 1.18646V0.436462H331.348V1.18646V1.93646H329.337V1.18646ZM333.359 1.18646V0.436462H335.37V1.18646V1.93646H333.359V1.18646ZM337.381 1.18646V0.436462H339.392V1.18646V1.93646H337.381V1.18646ZM341.404 1.18646V0.436462H343.415V1.18646V1.93646H341.404V1.18646ZM345.426 1.18646V0.436462H347.437V1.18646V1.93646H345.426V1.18646ZM349.448 1.18646V0.436462H351.459V1.18646V1.93646H349.448V1.18646ZM353.47 1.18646V0.436462H354.476C354.812 0.436462 355.147 0.443688 355.48 0.457993L355.448 1.2073L355.416 1.95661C355.104 1.94323 354.791 1.93646 354.476 1.93646H353.47V1.18646ZM357.383 1.37456L357.48 0.630863C358.148 0.718023 358.807 0.833863 359.456 0.977108L359.294 1.70948L359.133 2.44184C358.526 2.308 357.91 2.19974 357.286 2.11826L357.383 1.37456ZM361.169 2.21052L361.394 1.49518C362.035 1.69715 362.664 1.92645 363.28 2.18171L362.993 2.87451L362.705 3.5673C362.13 3.3288 361.542 3.11457 360.943 2.92587L361.169 2.21052ZM364.751 3.69599L365.098 3.03102C365.693 3.34123 366.272 3.67667 366.835 4.03593L366.431 4.66811L366.028 5.30027C365.502 4.96442 364.96 4.65088 364.404 4.36096L364.751 3.69599ZM368.021 5.78297L368.478 5.18827C369.009 5.59631 369.521 6.027 370.014 6.4789L369.507 7.03173L369.001 7.58455C368.54 7.16194 368.06 6.75919 367.564 6.37766L368.021 5.78297ZM370.88 8.40473L371.433 7.89788C371.885 8.39078 372.316 8.90345 372.724 9.43443L372.129 9.89143L371.535 10.3484C371.153 9.85192 370.75 9.37252 370.328 8.91156L370.88 8.40473ZM373.244 11.4807L373.876 11.0772C374.236 11.6399 374.571 12.2194 374.881 12.8141L374.216 13.1609L373.551 13.5078C373.261 12.952 372.948 12.4104 372.612 11.8843L373.244 11.4807ZM375.038 14.9196L375.73 14.6323C375.986 15.2479 376.215 15.877 376.417 16.5181L375.702 16.7435L374.986 16.9688C374.798 16.3698 374.583 15.7821 374.345 15.2069L375.038 14.9196ZM376.203 18.6179L376.935 18.4562C377.078 19.1051 377.194 19.7643 377.281 20.4325L376.538 20.5295L375.794 20.6265C375.712 20.0019 375.604 19.3858 375.47 18.7795L376.203 18.6179ZM376.705 22.4644L377.454 22.4322C377.469 22.7652 377.476 23.1 377.476 23.4365V24.4637H376.726H375.976V23.4365C375.976 23.1215 375.969 22.8081 375.956 22.4966L376.705 22.4644ZM376.726 26.5182H377.476V28.5727H376.726H375.976V26.5182H376.726ZM376.726 30.6272H377.476V32.6817H376.726H375.976V30.6272H376.726ZM376.726 34.7362H377.476V36.7907H376.726H375.976V34.7362H376.726ZM376.726 38.8452H377.476V40.8997H376.726H375.976V38.8452H376.726ZM376.726 42.9542H377.476V45.0087H376.726H375.976V42.9542H376.726ZM376.726 47.0632H377.476V49.1177H376.726H375.976V47.0632H376.726ZM376.726 51.1722H377.476V53.2267H376.726H375.976V51.1722H376.726ZM376.726 55.2812H377.476V57.3357H376.726H375.976V55.2812H376.726ZM376.726 59.3902H377.476V61.4447H376.726H375.976V59.3902H376.726ZM376.726 63.4992H377.476V65.5537H376.726H375.976V63.4992H376.726ZM376.726 67.6082H377.476V68.6355C377.476 68.972 377.469 69.3068 377.454 69.6397L376.705 69.6076L375.956 69.5754C375.969 69.2638 375.976 68.9505 375.976 68.6355V67.6082H376.726ZM376.538 71.5425L377.281 71.6395C377.23 72.0298 377.17 72.4169 377.1 72.8008H375.573C375.661 72.3539 375.734 71.902 375.794 71.4455L376.538 71.5425ZM65.0145 90.1355H63.8706V90.8855V91.6355H64.6877C64.7803 91.1295 64.8894 90.6293 65.0145 90.1355ZM61.8595 90.8855V91.6355H59.8483V90.8855V90.1355H61.8595V90.8855ZM57.8372 90.8855V91.6355H55.8261V90.8855V90.1355H57.8372V90.8855ZM53.815 90.8855V91.6355H51.8039V90.8855V90.1355H53.815V90.8855Z" />
    <ellipse fill="currentColor" opacity="0.5" cx="73.7729" cy="46.036" rx="15.6688" ry="15.8607" />
    <path stroke="currentColor" stroke-width="2" opacity="0.5" d="M95.2967 46.0361C95.2967 58.0873 85.6487 67.8359 73.7729 67.8359C61.897 67.8359 52.249 58.0873 52.249 46.0361C52.249 33.9849 61.897 24.2363 73.7729 24.2363C85.6487 24.2363 95.2967 33.9849 95.2967 46.0361Z" />
    <rect fill="currentColor" opacity="0.5" width="234.666" height="9.91294" rx="2" transform="matrix(1 0 0 -1 107.014 43.062)" />
    <rect fill="currentColor" opacity="0.5" width="153.6" height="9.91294" rx="2" transform="matrix(1 0 0 -1 107.014 58.9229)" />
    <rect stroke="currentColor" stroke-width="1.5" stroke-miterlimit="16" x="63.5615" y="72.0509" width="353.189" height="92.6991" rx="23.75" />
    <rect fill="currentColor" width="243.572" height="9.91294" rx="2" transform="matrix(1 0 0 -1 137.632 115.427)" />
    <rect fill="currentColor" width="159.429" height="9.91294" rx="2" transform="matrix(1 0 0 -1 137.632 131.287)" />
    <ellipse fill="currentColor" cx="104.131" cy="118.4" rx="15.6688" ry="15.8607" />
    <path stroke="currentColor" stroke-width="2" stroke-miterlimit="16" d="M104.131 142.2C117.134 142.2 127.655 131.533 127.655 118.4C127.655 105.268 117.134 94.6007 104.131 94.6007C91.1277 94.6007 80.6072 105.268 80.6072 118.4C80.6072 131.533 91.1277 142.2 104.131 142.2Z" />
</svg>
