<svg xmlns="http://www.w3.org/2000/svg" width="202" height="130" fill="none" viewBox="0 0 202 130" aria-hidden="true" focusable="false">
  <path fill="currentColor" d="M119.568 65.154c-4.391-9.917-12.654-16.07-21.568-16.07-8.914 0-17.177 6.153-21.569 16.07a2.065 2.065 0 0 0 0 1.692c4.392 9.917 12.655 16.07 21.569 16.07s17.177-6.153 21.568-16.07a2.061 2.061 0 0 0 0-1.692ZM98 78.687c-6.892 0-13.415-4.842-17.177-12.687C84.585 58.155 91.108 53.312 98 53.312c6.892 0 13.415 4.843 17.177 12.688-3.762 7.845-10.285 12.687-17.177 12.687Zm0-21.145c-1.72 0-3.402.496-4.832 1.425a8.514 8.514 0 0 0-3.203 3.796 8.244 8.244 0 0 0-.495 4.887 8.39 8.39 0 0 0 2.38 4.33 8.775 8.775 0 0 0 4.453 2.316 8.924 8.924 0 0 0 5.025-.482 8.647 8.647 0 0 0 3.903-3.115 8.292 8.292 0 0 0 1.466-4.7 8.342 8.342 0 0 0-2.547-5.98A8.823 8.823 0 0 0 98 57.542Zm0 12.687c-.86 0-1.7-.248-2.416-.713a4.257 4.257 0 0 1-1.602-1.898 4.122 4.122 0 0 1-.247-2.443 4.195 4.195 0 0 1 1.19-2.166 4.388 4.388 0 0 1 2.227-1.157 4.462 4.462 0 0 1 2.512.24c.795.32 1.474.863 1.952 1.558.477.696.732 1.514.732 2.35a4.172 4.172 0 0 1-1.273 2.99A4.413 4.413 0 0 1 98 70.23Z"/>
  <path fill="currentColor" fill-rule="evenodd" d="M97 109c23.748 0 43-19.252 43-43s-19.252-43-43-43-43 19.252-43 43 19.252 43 43 43Zm0 1c24.301 0 44-19.7 44-44s-19.699-44-44-44c-24.3 0-44 19.7-44 44s19.7 44 44 44Z" clip-rule="evenodd"/>
  <path fill="currentColor" fill-rule="evenodd" d="M97.5 103c20.158 0 36.5-16.342 36.5-36.5h1c0 20.71-16.789 37.5-37.5 37.5C76.79 104 60 87.21 60 66.5h1C61 86.658 77.342 103 97.5 103Z" clip-rule="evenodd"/>
  <path fill="currentColor" d="M157 68c0 8.284 6.716 15 15 15 8.284 0 15-6.716 15-15 0-8.284-6.716-15-15-15-8.284 0-15 6.716-15 15Z"/>
  <path fill="currentColor" d="M31 18.5c0 8.284 6.716 15 15 15 8.284 0 15-6.716 15-15 0-8.284-6.716-15-15-15-8.284 0-15 6.716-15 15Z" opacity=".3"/>
  <path fill="currentColor" d="M156 83c0 8.837 6.94 16 15.5 16 8.56 0 15.5-7.163 15.5-16h-31ZM15.182 24.5C40.486 24.5 61 44.647 61 69.5s-20.514 45-45.818 45v-90Z"/>
  <path fill="currentColor" d="M141 67V0l61 33.725L141 67Z" opacity=".3"/>
  <path fill="currentColor" fill-rule="evenodd" d="M170.5 120a5.5 5.5 0 1 0 0-11 5.5 5.5 0 1 0 0 11Zm0-21c-8.56 0-15.5 6.94-15.5 15.5 0 8.56 6.94 15.5 15.5 15.5 8.56 0 15.5-6.94 15.5-15.5 0-8.56-6.94-15.5-15.5-15.5Z" clip-rule="evenodd" opacity=".3"/>
</svg>
