<svg xmlns="http://www.w3.org/2000/svg" width="203" height="131" fill="none" viewBox="0 0 203 131" aria-hidden="true" focusable="false">
  <path fill="currentColor" fill-rule="evenodd" d="M97 108.829c23.748 0 43-19.4 43-43.333 0-23.932-19.252-43.333-43-43.333s-43 19.4-43 43.333 19.252 43.333 43 43.333Zm0 1.008c24.301 0 44-19.852 44-44.34 0-24.49-19.699-44.342-44-44.342-24.3 0-44 19.852-44 44.341s19.7 44.341 44 44.341Z" clip-rule="evenodd"/>
  <path fill="currentColor" fill-rule="evenodd" d="M97.5 103.791c20.158 0 36.5-16.469 36.5-36.783h1c0 20.871-16.789 37.79-37.5 37.79-20.71 0-37.5-16.919-37.5-37.79h1c0 20.314 16.342 36.783 36.5 36.783Z" clip-rule="evenodd"/>
  <path fill="currentColor" d="M138 47.357c0 8.348 6.716 15.116 15 15.116 8.284 0 15-6.768 15-15.116 0-8.349-6.716-15.117-15-15.117-8.284 0-15 6.768-15 15.117Z" opacity=".8"/>
  <path fill="currentColor" d="M32 93.713c0 8.905 6.94 16.124 15.5 16.124 8.56 0 15.5-7.219 15.5-16.124H32Z"/>
  <path fill="currentColor" d="M169-.008c18.778 0 34 15.115 34 33.76 0 18.645-15.222 33.76-34 33.76V-.008ZM0 124.953V8.054l61 58.842-61 58.057Z" opacity=".3"/>
  <mask id="a" fill="#fff">
    <path fill-rule="evenodd" d="M166 83.636c9.543 0 16 7.71 16 15.62 0 7.909-6.457 15.62-16 15.62s-16-7.711-16-15.62c0-7.91 6.457-15.62 16-15.62ZM166 131c-17.121 0-31-14.212-31-31.744s13.879-31.744 31-31.744c17.121 0 31 14.212 31 31.744S183.121 131 166 131Z" clip-rule="evenodd"/>
  </mask>
  <path fill="currentColor" d="M132 99.256c0 17.889 14.147 34.38 34 34.38v-100c38.938 0 66 31.912 66 65.62H132Zm34-34.38c-19.853 0-34 16.49-34 34.38h100c0 33.708-27.062 65.62-66 65.62v-100Zm34 34.38c0-17.89-14.147-34.38-34-34.38v100c-38.938 0-66-31.912-66-65.62h100Zm-34 34.38c19.853 0 34-16.491 34-34.38H100c0-33.708 27.062-65.62 66-65.62v100Zm19-34.38C185 90.298 177.605 81 166 81v100c-45.847 0-81-37.723-81-81.744h100Zm-19 18.256c11.605 0 19-9.299 19-18.256H85c0-44.022 35.153-81.744 81-81.744v100Zm-19-18.256c0 8.957 7.395 18.256 19 18.256v-100c45.847 0 81 37.722 81 81.744H147ZM166 81c-11.605 0-19 9.298-19 18.256h100C247 143.277 211.847 181 166 181V81Z" mask="url(#a)"/>
  <path fill="currentColor" fill-rule="evenodd" d="M102.351 50.03c-2.093-3.086-6.61-3.086-8.703 0l-.828 1.22a147.034 147.034 0 0 0-13.308 24.267l-.173.4c-1.292 2.994.66 6.393 3.879 6.756a132.068 132.068 0 0 0 29.564 0c3.219-.363 5.171-3.762 3.879-6.755l-.173-.4a146.999 146.999 0 0 0-13.309-24.268l-.828-1.22Zm-6.33 1.635a2.386 2.386 0 0 1 3.957 0l.828 1.22a144.164 144.164 0 0 1 13.046 23.788l.173.4c.52 1.206-.266 2.574-1.562 2.72a129.217 129.217 0 0 1-28.926 0c-1.296-.146-2.082-1.514-1.562-2.72l.173-.4a144.134 144.134 0 0 1 13.046-23.788l.828-1.22Z" clip-rule="evenodd"/>
  <path fill="currentColor" d="M96.083 75.637c0-1.067.858-1.932 1.917-1.932 1.058 0 1.916.865 1.916 1.932A1.924 1.924 0 0 1 98 77.568a1.924 1.924 0 0 1-1.917-1.931ZM98 70.325a1.443 1.443 0 0 1-1.438-1.449V59.22c0-.8.644-1.449 1.438-1.449.794 0 1.437.649 1.437 1.449v9.657c0 .8-.643 1.449-1.437 1.449Z"/>
</svg>
