<svg xmlns="http://www.w3.org/2000/svg" width="209" height="132" fill="none" viewBox="0 0 209 132" aria-hidden="true" focusable="false">
  <path fill="currentColor" fill-rule="evenodd" d="M103 103c23.748 0 43-19.252 43-43s-19.252-43-43-43-43 19.252-43 43 19.252 43 43 43Zm0 1c24.301 0 44-19.7 44-44s-19.699-44-44-44c-24.3 0-44 19.7-44 44s19.7 44 44 44Z" clip-rule="evenodd"/>
  <path fill="currentColor" fill-rule="evenodd" d="M139.5 60c0-20.158-16.342-36.5-36.5-36.5v-1c20.711 0 37.5 16.79 37.5 37.5S123.711 97.5 103 97.5v-1c20.158 0 36.5-16.342 36.5-36.5Z" clip-rule="evenodd"/>
  <path fill="currentColor" d="M103.515 52.727h-7.03a1.757 1.757 0 0 0-1.757 1.758v21.09a1.758 1.758 0 0 0 1.757 1.758h7.03a1.756 1.756 0 0 0 1.758-1.757V54.485a1.756 1.756 0 0 0-1.758-1.758Zm-1.757 21.091h-3.515V56.243h3.515v17.575Zm15.818-35.151h-7.03a1.759 1.759 0 0 0-1.758 1.757v35.152a1.756 1.756 0 0 0 1.758 1.757h7.03a1.759 1.759 0 0 0 1.758-1.757V40.424a1.76 1.76 0 0 0-1.758-1.757Zm-1.757 35.151h-3.516V42.182h3.516v31.636ZM89.455 63.273h-7.03a1.758 1.758 0 0 0-1.758 1.757v10.546a1.758 1.758 0 0 0 1.758 1.757h7.03a1.758 1.758 0 0 0 1.757-1.757V65.03a1.757 1.757 0 0 0-1.757-1.757Zm-1.758 10.545h-3.515v-7.03h3.515v7.03Z"/>
  <path fill="currentColor" d="M180 14c0 7.732 6.268 14 14 14s14-6.268 14-14-6.268-14-14-14-14 6.268-14 14Z" opacity=".3"/>
  <path fill="currentColor" d="M89.97 85c0 24.853-19.924 45-44.5 45-24.577 0-44.5-20.147-44.5-45h89Z" opacity=".8"/>
  <path fill="currentColor" d="M59 17v70L6 51.765 59 17Z" opacity=".3"/>
  <path fill="currentColor" d="M147 89c33.689 0 61-27.31 61-61h-61v61Z"/>
  <path fill="currentColor" fill-rule="evenodd" d="M183.125 93.291c7.725 0 12.952 6.194 12.952 12.547 0 6.353-5.227 12.547-12.952 12.547s-12.952-6.194-12.952-12.547c0-6.353 5.227-12.547 12.952-12.547Zm0 38.046c-13.859 0-25.094-11.417-25.094-25.499 0-14.082 11.235-25.499 25.094-25.499 13.859 0 25.094 11.416 25.094 25.499 0 14.082-11.235 25.499-25.094 25.499Z" clip-rule="evenodd" opacity=".3"/>
</svg>
