<svg width="746" height="271" viewBox="0 0 746 271" fill="none" xmlns="http://www.w3.org/2000/svg" aria-hidden="true" focusable="false">
    <path fill="currentColor" opacity="0.89" d="M232 265.5C194.997 265.5 165 235.951 165 199.5C165 163.049 194.997 133.5 232 133.5C232 199.5 232 163.049 232 199.5C232 235.951 232 199.5 232 265.5Z" />
    <path fill="currentColor"  d="M690 17.5L690 234.5L579 125.272L690 17.5Z" />
    <path stroke="currentColor" stroke-width="20" stroke-linecap="square" stroke-linejoin="round" opacity="0.89" d="M96 259.5C96 242.931 109.431 229.5 126 229.5C142.569 229.5 156 242.931 156 259.5" />
    <path stroke="currentColor" stroke-width="50" opacity="0.3" d="M69 109.5C69 137.667 91.8335 160.5 120 160.5C148.167 160.5 171 137.667 171 109.5C171 81.3335 148.167 58.5 120 58.5C91.8335 58.5 69 81.3335 69 109.5Z" />
    <ellipse fill="currentColor"  opacity="0.3" cx="624.148" cy="228.39" rx="41.8899" ry="41.1485" transform="rotate(-90 624.148 228.39)"/>
    <path fill="currentColor"  opacity="0.5" fill-rule="evenodd" clip-rule="evenodd" d="M276.028 180.426L275.996 181.175C276.329 181.19 276.664 181.197 277 181.197H278.011V180.447V179.697H277C276.685 179.697 276.372 179.69 276.06 179.677L276.028 180.426ZM274.093 180.259L273.996 181.003C273.328 180.915 272.669 180.8 272.02 180.656L272.181 179.924L272.343 179.192C272.949 179.325 273.565 179.434 274.19 179.515L274.093 180.259ZM270.307 179.423L270.082 180.138C269.44 179.936 268.811 179.707 268.196 179.452L268.483 178.759L268.77 178.066C269.346 178.305 269.933 178.519 270.532 178.708L270.307 179.423ZM266.724 177.937L266.378 178.602C265.783 178.292 265.203 177.957 264.641 177.597L265.044 176.965L265.448 176.333C265.974 176.669 266.516 176.983 267.071 177.272L266.724 177.937ZM263.455 175.85L262.998 176.445C262.467 176.037 261.954 175.606 261.461 175.155L261.968 174.602L262.475 174.049C262.936 174.471 263.415 174.874 263.912 175.256L263.455 175.85ZM260.595 173.229L260.042 173.736C259.591 173.243 259.16 172.73 258.752 172.199L259.347 171.742L259.941 171.285C260.323 171.782 260.725 172.261 261.148 172.722L260.595 173.229ZM258.232 170.153L257.599 170.556C257.24 169.994 256.905 169.414 256.595 168.819L257.26 168.473L257.924 168.126C258.214 168.681 258.528 169.223 258.864 169.749L258.232 170.153ZM256.438 166.714L255.745 167.001C255.49 166.386 255.261 165.756 255.059 165.115L255.774 164.89L256.489 164.665C256.678 165.264 256.892 165.851 257.131 166.427L256.438 166.714ZM255.273 163.016L254.541 163.177C254.397 162.528 254.282 161.869 254.194 161.201L254.938 161.104L255.682 161.007C255.763 161.632 255.872 162.248 256.005 162.854L255.273 163.016ZM254.771 159.169L254.022 159.201C254.007 158.868 254 158.533 254 158.197V157.21H254.75H255.5V158.197C255.5 158.512 255.507 158.825 255.52 159.137L254.771 159.169ZM254.75 155.235H254V153.26H254.75H255.5V155.235H254.75ZM254.75 151.285H254V149.311H254.75H255.5V151.285H254.75ZM254.75 147.336H254V145.361H254.75H255.5V147.336H254.75ZM254.75 143.386H254V141.412H254.75H255.5V143.386H254.75ZM254.75 139.437H254V137.462H254.75H255.5V139.437H254.75ZM254.75 135.487H254V134.5C254 134.163 254.007 133.829 254.022 133.496L254.771 133.528L255.52 133.56C255.507 133.872 255.5 134.185 255.5 134.5V135.487H254.75ZM254.938 131.593L254.194 131.496C254.282 130.828 254.397 130.169 254.541 129.52L255.273 129.681L256.005 129.843C255.872 130.449 255.763 131.065 255.682 131.69L254.938 131.593ZM255.774 127.807L255.059 127.582C255.261 126.94 255.49 126.311 255.745 125.696L256.438 125.983L257.131 126.27C256.892 126.846 256.678 127.433 256.489 128.032L255.774 127.807ZM257.26 124.224L256.595 123.878C256.905 123.283 257.24 122.703 257.599 122.141L258.232 122.544L258.864 122.948C258.528 123.474 258.214 124.016 257.924 124.571L257.26 124.224ZM259.347 120.955L258.752 120.498C259.16 119.967 259.591 119.454 260.042 118.961L260.595 119.468L261.148 119.975C260.725 120.436 260.323 120.915 259.941 121.412L259.347 120.955ZM261.968 118.095L261.461 117.542C261.954 117.091 262.467 116.66 262.998 116.252L263.455 116.846L263.912 117.441C263.415 117.823 262.936 118.225 262.475 118.648L261.968 118.095ZM265.044 115.732L264.641 115.099C265.203 114.74 265.783 114.405 266.378 114.095L266.724 114.76L267.071 115.424C266.516 115.714 265.974 116.028 265.448 116.364L265.044 115.732ZM268.483 113.938L268.196 113.245C268.811 112.99 269.44 112.761 270.082 112.559L270.307 113.274L270.532 113.989C269.933 114.178 269.346 114.392 268.77 114.631L268.483 113.938ZM272.181 112.773L272.02 112.041C272.669 111.897 273.328 111.782 273.996 111.694L274.093 112.438L274.19 113.182C273.565 113.263 272.949 113.372 272.343 113.505L272.181 112.773ZM277 111.5C276.664 111.5 276.329 111.507 275.996 111.522L276.028 112.271L276.06 113.02C276.372 113.007 276.685 113 277 113H278.011V112.25V111.5H277ZM280.033 112.25V111.5H282.055V112.25V113H280.033V112.25ZM284.077 112.25V111.5H286.099V112.25V113H284.077V112.25ZM288.121 112.25V111.5H290.143V112.25V113H288.121V112.25ZM292.165 112.25V111.5H294.187V112.25V113H292.165V112.25ZM296.208 112.25V111.5H298.23V112.25V113H296.208V112.25ZM300.252 112.25V111.5H302.274V112.25V113H300.252V112.25ZM304.296 112.25V111.5H306.318V112.25V113H304.296V112.25ZM308.34 112.25V111.5H310.362V112.25V113H308.34V112.25ZM312.384 112.25V111.5H314.406V112.25V113H312.384V112.25ZM316.428 112.25V111.5H318.45V112.25V113H316.428V112.25ZM320.472 112.25V111.5H322.494V112.25V113H320.472V112.25ZM324.516 112.25V111.5H326.538V112.25V113H324.516V112.25ZM328.56 112.25V111.5H330.581V112.25V113H328.56V112.25ZM332.603 112.25V111.5H334.625V112.25V113H332.603V112.25ZM336.647 112.25V111.5H338.669V112.25V113H336.647V112.25ZM340.691 112.25V111.5H342.713V112.25V113H340.691V112.25ZM344.735 112.25V111.5H346.757V112.25V113H344.735V112.25ZM348.779 112.25V111.5H350.801V112.25V113H348.779V112.25ZM352.823 112.25V111.5H354.845V112.25V113H352.823V112.25ZM356.867 112.25V111.5H358.889V112.25V113H356.867V112.25ZM360.911 112.25V111.5H362.933V112.25V113H360.911V112.25ZM364.955 112.25V111.5H366.976V112.25V113H364.955V112.25ZM368.998 112.25V111.5H371.02V112.25V113H368.998V112.25ZM373.042 112.25V111.5H375.064V112.25V113H373.042V112.25ZM377.086 112.25V111.5H379.108V112.25V113H377.086V112.25ZM381.13 112.25V111.5H383.152V112.25V113H381.13V112.25ZM385.174 112.25V111.5H387.196V112.25V113H385.174V112.25ZM389.218 112.25V111.5H391.24V112.25V113H389.218V112.25ZM393.262 112.25V111.5H395.284V112.25V113H393.262V112.25ZM397.306 112.25V111.5H399.328V112.25V113H397.306V112.25ZM401.349 112.25V111.5H403.371V112.25V113H401.349V112.25ZM405.393 112.25V111.5H407.415V112.25V113H405.393V112.25ZM409.437 112.25V111.5H411.459V112.25V113H409.437V112.25ZM413.481 112.25V111.5H415.503V112.25V113H413.481V112.25ZM417.525 112.25V111.5H419.547V112.25V113H417.525V112.25ZM421.569 112.25V111.5H423.591V112.25V113H421.569V112.25ZM425.613 112.25V111.5H427.635V112.25V113H425.613V112.25ZM429.657 112.25V111.5H431.679V112.25V113H429.657V112.25ZM433.701 112.25V111.5H435.722V112.25V113H433.701V112.25ZM437.744 112.25V111.5H439.766V112.25V113H437.744V112.25ZM441.788 112.25V111.5H442.799C443.136 111.5 443.471 111.507 443.804 111.522L443.771 112.271L443.739 113.02C443.428 113.007 443.114 113 442.799 113H441.788V112.25ZM445.706 112.438L445.803 111.694C446.472 111.782 447.131 111.897 447.78 112.041L447.618 112.773L447.456 113.505C446.85 113.372 446.234 113.263 445.609 113.182L445.706 112.438ZM449.492 113.274L449.718 112.559C450.359 112.761 450.988 112.99 451.603 113.245L451.316 113.938L451.029 114.631C450.454 114.392 449.866 114.178 449.267 113.989L449.492 113.274ZM453.075 114.76L453.422 114.095C454.016 114.405 454.596 114.74 455.159 115.099L454.755 115.732L454.352 116.364C453.825 116.028 453.284 115.714 452.728 115.424L453.075 114.76ZM456.344 116.847L456.801 116.252C457.332 116.66 457.845 117.091 458.338 117.542L457.831 118.095L457.324 118.648C456.863 118.225 456.384 117.823 455.887 117.441L456.344 116.847ZM459.204 119.468L459.757 118.961C460.209 119.454 460.64 119.967 461.048 120.498L460.453 120.955L459.858 121.412C459.477 120.915 459.074 120.436 458.651 119.975L459.204 119.468ZM461.568 122.544L462.2 122.141C462.559 122.703 462.895 123.283 463.205 123.878L462.54 124.224L461.875 124.571C461.585 124.016 461.271 123.474 460.936 122.948L461.568 122.544ZM463.361 125.983L464.054 125.696C464.309 126.311 464.539 126.94 464.741 127.582L464.025 127.807L463.31 128.032C463.121 127.433 462.907 126.846 462.669 126.27L463.361 125.983ZM464.526 129.681L465.259 129.52C465.402 130.169 465.518 130.828 465.605 131.496L464.861 131.593L464.118 131.69C464.036 131.065 463.928 130.449 463.794 129.843L464.526 129.681ZM465.029 133.528L465.778 133.496C465.792 133.829 465.799 134.164 465.799 134.5V135.487H465.049H464.299V134.5C464.299 134.185 464.293 133.872 464.279 133.56L465.029 133.528ZM465.049 137.462H465.799V139.437H465.049H464.299V137.462H465.049ZM465.049 141.412H465.799V143.386H465.049H464.299V141.412H465.049ZM465.049 145.361H465.799V147.336H465.049H464.299V145.361H465.049ZM465.049 149.311H465.799V151.285H465.049H464.299V149.311H465.049ZM465.049 153.26H465.799V155.235H465.049H464.299V153.26H465.049ZM465.049 157.21H465.799V158.197C465.799 158.533 465.792 158.868 465.778 159.201L465.029 159.169L464.279 159.137C464.293 158.825 464.299 158.512 464.299 158.197V157.21H465.049ZM464.861 161.104L465.605 161.201C465.518 161.869 465.402 162.528 465.259 163.177L464.526 163.016L463.794 162.854C463.928 162.248 464.036 161.632 464.118 161.007L464.861 161.104ZM464.025 164.89L464.741 165.115C464.56 165.688 464.358 166.251 464.135 166.803H463.576L463.361 166.714L462.669 166.427C462.907 165.851 463.121 165.264 463.31 164.665L464.025 164.89Z"/>
    <ellipse fill="currentColor"  opacity="0.5" cx="290.672" cy="146.349" rx="11.9745" ry="12.1212" />
    <path stroke="currentColor" stroke-width="2" opacity="0.5" d="M306.885 146.349C306.885 155.431 299.615 162.773 290.672 162.773C281.729 162.773 274.459 155.431 274.459 146.349C274.459 137.266 281.729 129.924 290.672 129.924C299.615 129.924 306.885 137.266 306.885 146.349Z" />
    <rect fill="currentColor"  opacity="0.5" width="123.487" height="7.57576" rx="2" transform="matrix(1 0 0 -1 321.357 144.076)" />
    <rect fill="currentColor"  opacity="0.5" width="80.828" height="7.57576" rx="2" transform="matrix(1 0 0 -1 321.357 156.197)" />
    <rect stroke="currentColor" stroke-width="1.5" stroke-miterlimit="16" x="276.451" y="166.053" width="213.299" height="71.197" rx="23.75" />
    <ellipse fill="currentColor" cx="313.873" cy="201.651" rx="11.9745" ry="12.1212" />
    <path stroke="currentColor" stroke-width="2" stroke-miterlimit="16" d="M313.873 220.076C323.943 220.076 332.086 211.815 332.086 201.652C332.086 191.488 323.943 183.227 313.873 183.227C303.802 183.227 295.659 191.488 295.659 201.652C295.659 211.815 303.802 220.076 313.873 220.076Z" />
    <rect fill="currentColor" width="123.487" height="7.57576" rx="2" transform="matrix(1 0 0 -1 344.557 199.379)" />
    <rect fill="currentColor" width="80.828" height="7.57576" rx="2" transform="matrix(1 0 0 -1 344.557 211.5)" />
</svg>
