<svg xmlns="http://www.w3.org/2000/svg" width="202" height="130" fill="none" viewBox="0 0 202 130" aria-hidden="true" focusable="false">
  <path fill="currentColor" fill-rule="evenodd" d="M33 113c-10.095 0-17-8.099-17-16.5S22.905 80 33 80c10.095 0 17 8.099 17 16.5S43.095 113 33 113Zm0-50c18.225 0 33 14.999 33 33.5 0 18.502-14.775 33.5-33 33.5S0 115.002 0 96.5C0 77.999 14.775 63 33 63Z" clip-rule="evenodd" opacity=".3"/>
  <path fill="currentColor" fill-rule="evenodd" d="M97 108c23.748 0 43-19.252 43-43s-19.252-43-43-43-43 19.252-43 43 19.252 43 43 43Zm0 1c24.301 0 44-19.7 44-44s-19.699-44-44-44c-24.3 0-44 19.7-44 44s19.7 44 44 44Z" clip-rule="evenodd"/>
  <path fill="currentColor" fill-rule="evenodd" d="M133.5 65c0-20.158-16.342-36.5-36.5-36.5v-1c20.711 0 37.5 16.79 37.5 37.5s-16.789 37.5-37.5 37.5v-1c20.158 0 36.5-16.342 36.5-36.5Z" clip-rule="evenodd"/>
  <path fill="currentColor" d="M99.934 56.333a1 1 0 0 0-1-1h-1.867a1 1 0 0 0-1 1v6.734h-6.733a1 1 0 0 0-1 1v1.866a1 1 0 0 0 1 1h6.733v6.734a1 1 0 0 0 1 1h1.867a1 1 0 0 0 1-1v-6.734h6.733a1 1 0 0 0 1-1v-1.866a1 1 0 0 0-1-1h-6.733v-6.734ZM98 45.667c-10.672 0-19.333 8.661-19.333 19.333 0 10.672 8.661 19.333 19.333 19.333 10.672 0 19.334-8.66 19.334-19.333 0-10.672-8.662-19.333-19.334-19.333Zm0 34.8c-8.526 0-15.466-6.94-15.466-15.467 0-8.526 6.94-15.467 15.466-15.467S113.467 56.474 113.467 65 106.526 80.467 98 80.467ZM202 8c0 24.853-19.923 45-44.5 45S113 32.853 113 8h89Z"/>
  <path fill="currentColor" d="M158 129V53l44 38.255L158 129ZM49 16c0-8.837-7.163-16-16-16S17 7.163 17 16s7.163 16 16 16 16-7.163 16-16Z" opacity=".3"/>
  <path fill="currentColor" d="M48 63c0-8.837-6.94-16-15.5-16C23.94 47 17 54.163 17 63h31Z"/>
  <path fill="currentColor" d="M48 47c0-8.284-6.94-15-15.5-15C23.94 32 17 38.716 17 47h31Z" opacity=".8"/>
</svg>
