<svg xmlns="http://www.w3.org/2000/svg" width="202" height="130" fill="none" viewBox="0 0 202 130" aria-hidden="true" focusable="false">
  <path fill="currentColor" fill-rule="evenodd" d="M97 108c23.748 0 43-19.252 43-43s-19.252-43-43-43-43 19.252-43 43 19.252 43 43 43Zm0 1c24.301 0 44-19.7 44-44s-19.699-44-44-44c-24.3 0-44 19.7-44 44s19.7 44 44 44Z" clip-rule="evenodd"/>
  <path fill="currentColor" fill-rule="evenodd" d="M133.5 65c0-20.158-16.342-36.5-36.5-36.5v-1c20.711 0 37.5 16.79 37.5 37.5s-16.789 37.5-37.5 37.5v-1c20.158 0 36.5-16.342 36.5-36.5Z" clip-rule="evenodd"/>
  <path fill="currentColor" d="M111.836 55.893a2.083 2.083 0 0 0-.672-.414 2.224 2.224 0 0 0-1.587 0c-.251.096-.48.237-.671.414l-15.374 14.11-6.458-5.94a2.14 2.14 0 0 0-.692-.407 2.28 2.28 0 0 0-1.614.025 2.122 2.122 0 0 0-.676.43 1.921 1.921 0 0 0-.445.634 1.79 1.79 0 0 0 .028 1.48c.11.232.27.443.469.62l7.923 7.262c.192.177.42.318.672.414a2.225 2.225 0 0 0 1.587 0c.252-.096.48-.237.672-.414l16.838-15.434c.209-.177.376-.392.491-.631a1.762 1.762 0 0 0 0-1.518 1.918 1.918 0 0 0-.491-.631Z"/>
  <ellipse cx="15.5" cy="16" fill="currentColor" rx="15.5" ry="16" transform="matrix(-1 0 0 1 185 98)"/>
  <path fill="currentColor" d="M154 67c0 8.837 6.94 16 15.5 16 8.56 0 15.5-7.163 15.5-16h-31Z" opacity=".8"/>
  <path fill="currentColor" d="M154 83c0 8.284 6.94 15 15.5 15 8.56 0 15.5-6.716 15.5-15h-31Z" opacity=".5"/>
  <path fill="currentColor" d="M89 85c0 24.853-19.923 45-44.5 45S0 109.853 0 85h89Z" opacity=".3"/>
  <path fill="currentColor" d="M22 84V21l33 31.711L22 84Z"/>
  <path fill="currentColor" fill-rule="evenodd" d="M169 17c10.095 0 17 8.099 17 16.5S179.095 50 169 50c-10.095 0-17-8.099-17-16.5S158.905 17 169 17Zm0 50c-18.225 0-33-14.998-33-33.5C136 14.998 150.775 0 169 0s33 14.998 33 33.5c0 18.502-14.775 33.5-33 33.5Z" clip-rule="evenodd" opacity=".3"/>
</svg>
