<svg xmlns="http://www.w3.org/2000/svg" width="206" height="130" fill="none" viewBox="0 0 206 130" aria-hidden="true" focusable="false">
  <path fill="currentColor" fill-rule="evenodd" d="M101 108c23.748 0 43-19.252 43-43s-19.252-43-43-43-43 19.252-43 43 19.252 43 43 43Zm0 1c24.301 0 44-19.7 44-44s-19.699-44-44-44c-24.3 0-44 19.7-44 44s19.7 44 44 44Z" clip-rule="evenodd"/>
  <path fill="currentColor" fill-rule="evenodd" d="M137.5 65c0-20.158-16.342-36.5-36.5-36.5v-1c20.711 0 37.5 16.79 37.5 37.5s-16.789 37.5-37.5 37.5v-1c20.158 0 36.5-16.342 36.5-36.5Z" clip-rule="evenodd"/>
  <path fill="currentColor" d="m119.791 80.068-7.169-7.115a17.408 17.408 0 0 0-1.96-23.845 17.383 17.383 0 0 0-23.902.655 17.405 17.405 0 0 0-.654 23.916 17.386 17.386 0 0 0 23.831 1.961l7.11 7.115a1.93 1.93 0 0 0 2.744 0 1.935 1.935 0 0 0 0-2.687ZM99.097 75.64a13.52 13.52 0 0 1-12.496-8.354 13.541 13.541 0 0 1 2.932-14.748 13.524 13.524 0 0 1 14.74-2.934 13.529 13.529 0 0 1 8.349 12.503c0 3.59-1.425 7.032-3.961 9.57a13.523 13.523 0 0 1-9.564 3.963Z"/>
  <path fill="currentColor" d="M29 26c0 7.732 6.268 14 14 14s14-6.268 14-14-6.268-14-14-14-14 6.268-14 14Z" opacity=".3"/>
  <path fill="currentColor" d="M203.767 82.346c0 21.9-17.557 39.654-39.214 39.654s-39.214-17.754-39.214-39.654h78.428Z"/>
  <path fill="currentColor" d="M187.918 21v63l-33-31.711 33-31.289Z"/>
  <path fill="currentColor" fill-rule="evenodd" d="M35.874 94.54c10.518 0 19.045 8.527 19.045 19.045V122h16.83v-8.415c0-19.813-16.062-35.874-35.874-35.874C16.061 77.71 0 93.772 0 113.585V122h16.83v-8.415c0-10.518 8.527-19.044 19.044-19.044Z" clip-rule="evenodd" opacity=".3"/>
  <path fill="currentColor" d="M7 84c24.3 0 44-19.7 44-44H7v44Z"/>
</svg>
