<svg xmlns="http://www.w3.org/2000/svg" width="202" height="130" fill="none" viewBox="0 0 202 130" aria-hidden="true" focusable="false">
  <path fill="currentColor" fill-rule="evenodd" d="M31 83c9.543 0 16 7.651 16 15.5S40.543 114 31 114s-16-7.651-16-15.5S21.457 83 31 83Zm0 47c-17.12 0-31-14.103-31-31.5S13.88 67 31 67c17.12 0 31 14.103 31 31.5S48.12 130 31 130Z" clip-rule="evenodd" opacity=".3"/>
  <path fill="currentColor" d="M98 46.667a19.333 19.333 0 1 0 0 38.666 19.333 19.333 0 0 0 0-38.666Zm0 34.8A15.467 15.467 0 0 1 82.534 66a15.312 15.312 0 0 1 3.267-9.473l21.673 21.672A15.314 15.314 0 0 1 98 81.467Zm12.2-5.994L88.527 53.801A15.312 15.312 0 0 1 98 50.533 15.468 15.468 0 0 1 113.467 66a15.318 15.318 0 0 1-3.267 9.473Z"/>
  <path fill="currentColor" fill-rule="evenodd" d="M97 109c23.748 0 43-19.252 43-43s-19.252-43-43-43-43 19.252-43 43 19.252 43 43 43Zm0 1c24.301 0 44-19.7 44-44s-19.699-44-44-44c-24.3 0-44 19.7-44 44s19.7 44 44 44Z" clip-rule="evenodd"/>
  <path fill="currentColor" fill-rule="evenodd" d="M97.5 103c20.158 0 36.5-16.342 36.5-36.5h1c0 20.71-16.789 37.5-37.5 37.5C76.79 104 60 87.21 60 66.5h1C61 86.658 77.342 103 97.5 103Z" clip-rule="evenodd"/>
  <path fill="currentColor" d="M3 47c0 8.284 6.716 15 15 15 8.284 0 15-6.716 15-15 0-8.284-6.716-15-15-15-8.284 0-15 6.716-15 15Z"/>
  <path fill="currentColor" d="M170 35c0-8.837-6.94-16-15.5-16-8.56 0-15.5 7.163-15.5 16h31Z" opacity=".3"/>
  <path fill="currentColor" d="M33 0c18.778 0 34 14.998 34 33.5C67 52.002 51.778 67 33 67V0Z"/>
  <path fill="currentColor" d="M202 4v116l-61-58.39L202 4Z" opacity=".8"/>
</svg>
