<svg width="20" height="20" viewBox="0 0 20 20" fill="none" xmlns="http://www.w3.org/2000/svg">
<g clip-path="url(#clip0_25_1290)">
<path fill-rule="evenodd" clip-rule="evenodd" d="M6.83805 6.22772V12.9932C6.83727 13.0353 6.80181 13.0647 6.76035 13.0642H5.82513C5.67991 13.0642 5.46429 12.9385 5.46429 12.7319V8.96123L3.78652 12.8008C3.71013 12.9778 3.55578 13.0642 3.40143 13.0642C3.24708 13.0642 3.09351 12.9778 3.01686 12.8008L1.37376 8.98283V12.9908C1.37376 13.0309 1.34013 13.0653 1.29789 13.064H0.0776962C0.0362409 13.0653 0.000521451 13.0322 0 12.9908L0.00599669 6.2462C0.00599669 6.11113 0.114719 6 0.250036 6H1.25253L1.25729 5.99983C1.2606 5.99965 1.26398 5.99947 1.26713 6C1.40505 6.0052 1.52889 6.09733 1.58834 6.23501L3.29661 10.2154C3.31982 10.2701 3.36727 10.2971 3.41472 10.2971C3.46218 10.2971 3.50963 10.2701 3.53335 10.2154L5.24137 6.23423C5.30212 6.09265 5.43196 6 5.57588 6H6.59088C6.7275 6 6.83831 6.09135 6.83831 6.22772H6.83805ZM11.467 6.1257V7.26277C11.467 7.332 11.4101 7.38848 11.341 7.38848H7.32847V6H11.341C11.4104 6 11.467 6.05673 11.467 6.1257ZM10.0408 8.96435V10.1006C10.0408 10.1699 9.98396 10.2263 9.91487 10.2263H7.32847V8.83865H9.91487C9.98423 8.83865 10.0408 8.89538 10.0408 8.96435ZM11.4787 12.9385V11.8022C11.4787 11.7332 11.4221 11.6765 11.3528 11.6765H7.32821V13.0642H11.3528C11.4219 13.0642 11.4787 13.0077 11.4787 12.9385ZM15.0084 10.2201H17.0431L17.0434 10.2204C17.04 10.2316 17.0361 10.2427 17.0322 10.2539C17.0282 10.2651 17.0243 10.2755 17.0196 10.2875C16.7287 11.0394 16.0169 11.6016 15.1834 11.6648C14.5633 11.7109 13.9553 11.4896 13.5147 11.0566C13.0733 10.6227 12.8418 10.0202 12.8788 9.40081C12.9435 8.32359 13.8404 7.44339 14.9221 7.39603C15.4253 7.37365 15.9233 7.52954 16.3209 7.83509C16.3639 7.86814 16.4213 7.87412 16.4687 7.85096C16.5162 7.82702 16.5446 7.78173 16.5446 7.72838V6.3451C16.0716 6.11841 15.5452 6 15.0144 6C14.9675 6 14.9208 6.0013 14.8739 6.00338C13.0478 6.07495 11.5577 7.55843 11.4816 9.38207C11.4409 10.3544 11.789 11.2768 12.4624 11.9774C13.1364 12.6777 14.044 13.0642 15.0175 13.0642C16.9685 13.0642 18.5553 11.4803 18.5553 9.53276C18.5553 9.36307 18.5428 9.19182 18.5191 9.02395C18.5047 8.92765 18.4203 8.8553 18.322 8.8553H14.6074V9.81904C14.6074 10.0403 14.7876 10.2201 15.0084 10.2201Z" fill="#4F42ED"/>
<path d="M19.2779 7.44184C19.6767 7.44184 20.0001 7.11907 20.0001 6.72092C20.0001 6.32277 19.6767 6 19.2779 6C18.879 6 18.5557 6.32277 18.5557 6.72092C18.5557 7.11907 18.879 7.44184 19.2779 7.44184Z" fill="#21CEDD"/>
</g>
<defs>
<clipPath id="clip0_25_1290">
<rect width="20" height="7.06422" fill="white" transform="translate(0 6)"/>
</clipPath>
</defs>
</svg>
