<svg width="24" height="24" viewBox="0 0 24 24" fill="none" xmlns="http://www.w3.org/2000/svg">
<path d="M11.6906 4.2906C11.9906 4.2906 12.2636 4.3206 12.5096 4.3806C12.7616 4.4406 13.0046 4.5306 13.2386 4.6506L12.8066 5.6676C12.6026 5.5776 12.4136 5.5086 12.2396 5.4606C12.0656 5.4066 11.8826 5.3796 11.6906 5.3796C11.5106 5.3796 11.3456 5.4066 11.1956 5.4606C11.0516 5.5086 10.9226 5.5836 10.8086 5.6856C10.6946 5.7876 10.5986 5.9136 10.5206 6.0636C10.4486 6.2136 10.3946 6.3876 10.3586 6.5856H12.1316V7.3596H10.2956C10.2956 7.3836 10.2926 7.4166 10.2866 7.4586C10.2866 7.4946 10.2866 7.5396 10.2866 7.5936C10.2866 7.6356 10.2866 7.6806 10.2866 7.7286C10.2866 7.7706 10.2896 7.8156 10.2956 7.8636H11.8526V8.6466H10.3676C10.4156 8.8806 10.4996 9.0786 10.6196 9.2406C10.7456 9.3966 10.9046 9.5166 11.0966 9.6006C11.2946 9.6786 11.5226 9.7176 11.7806 9.7176C12.0086 9.7176 12.2216 9.6966 12.4196 9.6546C12.6236 9.6066 12.8126 9.5436 12.9866 9.4656V10.5906C12.8186 10.6746 12.6296 10.7376 12.4196 10.7796C12.2156 10.8276 11.9756 10.8516 11.6996 10.8516C11.2316 10.8516 10.8146 10.7676 10.4486 10.5996C10.0826 10.4256 9.7796 10.1736 9.5396 9.8436C9.2996 9.5136 9.1376 9.1146 9.0536 8.6466H8.4506V7.8636H8.9726C8.9666 7.8336 8.9606 7.7916 8.9546 7.7376C8.9546 7.6836 8.9546 7.6356 8.9546 7.5936C8.9546 7.5456 8.9546 7.5006 8.9546 7.4586C8.9546 7.4166 8.9576 7.3836 8.9636 7.3596H8.4506V6.5856H9.0356C9.1136 6.1056 9.2726 5.6946 9.5126 5.3526C9.7526 5.0106 10.0586 4.7496 10.4306 4.5696C10.8026 4.3836 11.2226 4.2906 11.6906 4.2906Z" fill="currentColor" />
<path d="M4.94236 19.0634C4.94658 18.8953 4.9536 18.7594 4.9536 18.6235C4.9536 13.3481 4.9536 8.07407 4.95782 2.79864C4.95782 2.58011 4.95782 2.34758 5.02384 2.14446C5.25562 1.43565 5.82174 1.03502 6.57469 1.0056C6.64492 1.0028 6.71516 1.0056 6.7854 1.0056C9.76207 1.0056 12.7373 1.00981 15.714 1C16.0666 1 16.3279 1.10506 16.5779 1.35721C18.3002 3.09561 20.0336 4.8242 21.7713 6.54859C22.0031 6.77833 22.1098 7.02207 22.1084 7.35126C22.1014 11.5663 22.1056 15.7813 22.1028 19.9963C22.1028 20.8172 21.8696 21.5526 21.2754 22.1536C20.7107 22.7237 20.0238 22.9913 19.2329 22.9941C16.6299 22.9997 14.0283 22.9955 11.4253 22.9955C9.20719 22.9955 6.99049 23.0081 4.77239 22.9913C3.54183 22.9815 2.63717 22.4155 2.11741 21.2837C1.97553 20.9741 1.90669 20.6435 1.89686 20.3031C1.89124 20.0818 1.88984 19.8605 1.89405 19.6391C1.89967 19.2343 2.03874 19.0914 2.4405 19.09C3.14007 19.0858 3.84104 19.09 4.54061 19.0886C4.66422 19.0886 4.78925 19.0732 4.94377 19.062L4.94236 19.0634ZM21.2656 7.50815C21.1841 7.48994 21.1195 7.46192 21.0535 7.46052C20.4593 7.45211 19.865 7.44511 19.2708 7.44371C18.2552 7.44091 17.2396 7.44371 16.2239 7.44231C15.7969 7.44231 15.6592 7.30923 15.6311 6.88759C15.6255 6.79514 15.6297 6.70128 15.6297 6.60883C15.6297 5.15339 15.6297 3.69795 15.6269 2.24252C15.6269 2.10944 15.6761 1.96095 15.5342 1.82648C15.4499 1.82648 15.346 1.82648 15.242 1.82648C12.4171 1.82648 9.5935 1.82648 6.76854 1.82648C6.70954 1.82648 6.65195 1.82507 6.59295 1.82648C6.08021 1.84889 5.77117 2.15286 5.74729 2.65996C5.74307 2.7412 5.74729 2.82245 5.74729 2.9051C5.74729 8.06427 5.74729 13.222 5.74729 18.3812C5.74729 18.5325 5.74167 18.6838 5.7501 18.8351C5.75431 18.9121 5.7796 18.9878 5.80207 19.0914C5.95519 19.0914 6.09426 19.0914 6.23193 19.0914C9.60474 19.0914 12.9775 19.0914 16.3518 19.0914C16.4796 19.0914 16.6088 19.0872 16.7367 19.0928C17.0584 19.1082 17.2044 19.2511 17.2157 19.5677C17.2241 19.7652 17.2269 19.9641 17.2157 20.1616C17.1735 21.0119 17.8324 22.0247 18.9506 22.1592C19.6515 22.2432 20.271 22.0597 20.7571 21.5302C21.1279 21.1254 21.2796 20.6351 21.2796 20.0902C21.2796 16.0026 21.2796 11.9151 21.2796 7.82753C21.2796 7.72527 21.2712 7.62161 21.2656 7.50815ZM17.1145 22.1354C16.9249 21.7824 16.6931 21.4532 16.5667 21.089C16.4403 20.7262 16.4192 20.3255 16.3532 19.9487C16.3209 19.9361 16.2998 19.9193 16.2787 19.9193C11.8453 19.9165 7.41192 19.9137 2.97852 19.9123C2.92093 19.9123 2.86333 19.9207 2.80574 19.9263C2.7945 19.9263 2.78326 19.9333 2.77343 19.9389C2.76359 19.9459 2.75797 19.9557 2.72988 19.9865C2.63998 20.5132 2.79028 21.0007 3.13445 21.4252C3.54745 21.935 4.08968 22.1816 4.75272 22.1802C6.63088 22.1746 8.50903 22.1802 10.3886 22.1802C12.5126 22.1802 14.6352 22.1802 16.7591 22.1774C16.8799 22.1774 17.0148 22.225 17.1159 22.1354H17.1145ZM16.4768 2.48345C16.467 2.54789 16.4543 2.59272 16.4543 2.63754C16.4543 3.87165 16.4543 5.10576 16.4543 6.33987C16.4543 6.3861 16.4417 6.44213 16.4627 6.47715C16.5007 6.53879 16.5512 6.60603 16.6145 6.63684C16.672 6.66486 16.7521 6.64945 16.8209 6.64945C18.0108 6.64945 19.202 6.64945 20.3918 6.64945C20.4649 6.64945 20.5365 6.62984 20.6728 6.61023C19.3088 5.24164 17.9897 3.91648 16.6678 2.59272C16.6215 2.54649 16.5512 2.52408 16.4768 2.48345Z" fill="currentColor" stroke="currentColor"/>
<path d="M13.6174 13.8105H13.4631H13.4549H13.4466H13.4383H13.4301H13.4218H13.4135H13.4053H13.397H13.3887H13.3805H13.3722H13.364H13.3557H13.3474H13.3392H13.3309H13.3226H13.3144H13.3061H13.2978H13.2896H13.2813H13.273H13.2648H13.2565H13.2483H13.24H13.2317H13.2235H13.2152H13.2069H13.1987H13.1904H13.1821H13.1739H13.1656H13.1574H13.1491H13.1408H13.1326H13.1243H13.116H13.1078H13.0995H13.0912H13.083H13.0747H13.0665H13.0582H13.0499H13.0417H13.0334H13.0251H13.0169H13.0086H13.0003H12.9921H12.9838H12.9756H12.9673H12.959H12.9508H12.9425H12.9342H12.926H12.9177H12.9094H12.9012H12.8929H12.8847H12.8764H12.8681H12.8599H12.8516H12.8433H12.8351H12.8268H12.8185H12.8103H12.802H12.7937H12.7855H12.7772H12.769H12.7607H12.7524H12.7442H12.7359H12.7276H12.7194H12.7111H12.7028H12.6946H12.6863H12.6781H12.6698H12.6615H12.6533H12.645H12.6367H12.6285H12.6202H12.6119H12.6037H12.5954H12.5872H12.5789H12.5706H12.5624H12.5541H12.5458H12.5376H12.5293H12.5211H12.5128H12.5045H12.4963H12.488H12.4797H12.4715H12.4632H12.4549H12.4467H12.4384H12.4302H12.4219H12.4136H12.4054H12.3971H12.3888H12.3806H12.3723H12.364H12.3558H12.3475H12.3393H12.331H12.3227H12.3145H12.3062H12.2979H12.2897H12.2814H12.2731H12.2649H12.2566H12.2484H12.2401H12.2318H12.2236H12.2153H12.207H12.1988H12.1905H12.1823H12.174H12.1657H12.1575H12.1492H12.1409H12.1327H12.1244H12.1161H12.1079H12.0996H12.0914H12.0831H12.0748H12.0666H12.0583H12.05H12.0418H12.0335H12.0253H12.017H12.0087H12.0005H11.9922H11.9839H11.9757H11.9674H11.9592H11.9509H11.9426H11.9344H11.9261H11.9178H11.9096H11.9013H11.8931H11.8848H11.8765H11.8683H11.86H11.8517H11.8435H11.8352H11.8269H11.8187H11.8104H11.8022H11.7939H11.7856H11.7774H11.7691H11.7608H11.7526H11.7443H11.7361H11.7278H11.7195H11.7113H11.703H11.6947H11.6865H11.6782H11.67H11.6617H11.6534H11.6452H11.6369H11.6286H11.6204H11.6121H11.6039H11.5956H11.5873H11.5791H11.5708H11.5626H11.5543H11.546H11.5378H11.5295H11.5212H11.513H11.5047H11.4965H11.4882H11.4799H11.4717H11.4634H11.4551H11.4469H11.4386H11.4304H11.4221H11.4138H11.4056H11.3973H11.389H11.3808H11.3725H11.3643H11.356H11.3477H11.3395H11.3312H11.323H11.3147H11.3064H11.2982H11.2899H11.2816H11.2734H11.2651H11.2569H11.2486H11.2403H11.2321H11.2238H11.2155H11.2073H11.199H11.1908H11.1825H11.1742H11.166H11.1577H11.1495H11.1412H11.1329H11.1247H11.1164H11.1082H11.0999H11.0916H11.0834H11.0751H11.0668H11.0586H11.0503H11.0421H11.0338H11.0255H11.0173H11.009H11.0008H10.9925H10.9842H10.976H10.9677H10.9594H10.9512H10.9429H10.9347H10.9264H10.9181H10.9099H10.9016H10.8934H10.8851H10.8768H10.8686H10.8603H10.8521H10.8438H10.8355H10.8273H10.819H10.8108H10.8025H10.7942H10.786H10.7777H10.7695H10.7612H10.7529H10.7447H10.7364H10.7281H10.7199H10.7116H10.7034H10.6951H10.6868H10.6786H10.6703H10.6621H10.6538H10.6455H10.6373H10.629H10.6208H10.6125H10.6042H10.596H10.5877H10.5795H10.5712H10.5629H10.5547H10.5464H10.5382H10.5299H10.5216H10.5134H10.5051H10.4969H10.4886H10.4803H10.4721H10.4638H10.4556H10.4473H10.439H10.4308H10.4225H10.4143H10.406H10.3977H10.3895H10.3812H10.373H10.3647H10.3565H10.3482H10.3399H10.3317H10.3234H10.3152H10.3069H10.2986H10.2904H10.2821H10.2739H10.2656H10.2573H10.2491H10.2408H10.2326H10.2243H10.216H10.2078H10.1995H10.1913H10.183H10.1747H10.1665H10.1582H10.15H10.1417H10.1335H10.1252H10.1169H10.1087H10.1004H10.0922H10.0839H10.0756H10.0674H10.0591H10.0509H10.0426H10.0343H10.0261H10.0178H10.0096H10.0013H9.99306H9.9848H9.97654H9.96828H9.96002H9.95177H9.94351H9.93525H9.92699H9.91873H9.91048H9.90222H9.89396H9.8857H9.87744H9.86919H9.86093H9.85267H9.84441H9.83615H9.8279H9.81964H9.81138H9.80312H9.79487H9.78661H9.77835H9.77009H9.76183H9.75358H9.74532H9.73706H9.7288H9.72055H9.71229H9.70403H9.69577H9.68752H9.67926H9.671H9.66275H9.65449H9.64623H9.63797H9.62972H9.62146H9.6132H9.60495H9.59669H9.58843H9.58017H9.57192H9.56366H9.5554H9.54715H9.53889H9.53063H9.52238H9.51412H9.50586H9.49761H9.48935H9.48109H9.47284H9.46458H9.45632H9.44807H9.43981H9.43155H9.4233H9.41504H9.40678H9.39853H9.39027H9.38202H9.37376H9.3655H9.35725H9.34899H9.34074H9.33248H9.32422H9.31597H9.30771H9.29946H9.2912H9.28294H9.27469H9.26643H9.25818H9.24992H9.24166H9.23341C9.21778 13.8105 9.19976 13.8108 9.17998 13.8111C9.10794 13.8123 9.01256 13.8138 8.92426 13.8031L13.6174 13.8105ZM13.6174 13.8105L13.6188 13.8077M13.6174 13.8105L13.6188 13.8077M18.5931 13.2264C18.6293 12.8973 18.3966 12.6 18.0755 12.5231L18.0751 12.523C17.9576 12.4951 17.8368 12.4952 17.7505 12.4952C17.7472 12.4952 17.7438 12.4952 17.7406 12.4952H17.7239H17.7073H17.6906H17.6739H17.6573H17.6406H17.6239H17.6073H17.5906H17.5739H17.5572H17.5406H17.5239H17.5072H17.4906H17.4739H17.4572H17.4406H17.4239H17.4072H17.3906H17.3739H17.3572H17.3406H17.3239H17.3072H17.2906H17.2739H17.2572H17.2406H17.2239H17.2072H17.1906H17.1739H17.1572H17.1406H17.1239H17.1072H17.0906H17.0739H17.0572H17.0406H17.0239H17.0072H16.9906H16.9739H16.9572H16.9406H16.9239H16.9072H16.8906H16.8739H16.8572H16.8406H16.8239H16.8072H16.7906H16.7739H16.7572H16.7406H16.7239H16.7073H16.6906H16.6739H16.6573H16.6406H16.6239H16.6073H16.5906H16.5739H16.5573H16.5406H16.5239H16.5073H16.4906H16.4739H16.4573H16.4406H16.4239H16.4073H16.3906H16.3739H16.3573H16.3406H16.3239H16.3073H16.2906H16.2739H16.2573H16.2406H16.224H16.2073H16.1906H16.174H16.1573H16.1406H16.124H16.1073H16.0906H16.074H16.0573H16.0406H16.024H16.0073H15.9906H15.974H15.9573H15.9407H15.924H15.9073H15.8907H15.874H15.8573H15.8407H15.824H15.8073H15.7907H15.774H15.7573H15.7407H15.724H15.7073H15.6907H15.674H15.6574H15.6407H15.624H15.6074H15.5907H15.574H15.5574H15.5407H15.524H15.5074H15.4907H15.4741H15.4574H15.4407H15.4241H15.4074H15.3907H15.3741H15.3574H15.3407H15.3241H15.3074H15.2908H15.2741H15.2574H15.2408H15.2241H15.2074H15.1908H15.1741H15.1574H15.1408H15.1241H15.1075H15.0908H15.0741H15.0575H15.0408H15.0241H15.0075H14.9908H14.9741H14.9575H14.9408H14.9242H14.9075H14.8908H14.8742H14.8575H14.8408H14.8242H14.8075H14.7909H14.7742H14.7575H14.7409H14.7242H14.7075H14.6909H14.6742H14.6575H14.6409H14.6242H14.6076H14.5909H14.5742H14.5576H14.5409H14.5242H14.5076H14.4909H14.4743H14.4576H14.4409H14.4243H14.4076H14.3909H14.3743H14.3576H14.341H14.3243H14.3076H14.291H14.2743H14.2576H14.241H14.2243H14.2077H14.191H14.1743H14.1577H14.141H14.1243H14.1077H14.091H14.0744H14.0577H14.041H14.0244H14.0077H13.991H13.9744H13.9577H13.9411H13.9244H13.9077H13.8911H13.8744H13.8578H13.8411H13.8244H13.8078H13.7911H13.7744H13.7578H13.7411H13.7245H13.7078H13.6911H13.6745H13.6578H13.6411H13.6245H13.6078H13.5912H13.5745H13.5578H13.5412H13.5245H13.5079H13.4912H13.4745H13.4579H13.4412H13.4245H13.4079H13.3912H13.3746H13.3579H13.3412H13.3246H13.3079H13.2913H13.2746H13.2579H13.2413H13.2246H13.208H13.1913H13.1746H13.158H13.1413H13.1246H13.108H13.0913H13.0747H13.058H13.0413H13.0247H13.008H12.9914H12.9747H12.958H12.9414H12.9247H12.908H12.8914H12.8747H12.8581H12.8414H12.8247H12.8081H12.7914H12.7748H12.7581H12.7414H12.7248H12.7081H12.6915H12.6748H12.6581H12.6415H12.6248H12.6082H12.5915H12.5748H12.5582H12.5415H12.5248H12.5082H12.4915H12.4749H12.4582H12.4415H12.4249H12.4082H12.3916H12.3749H12.3582H12.3416H12.3249H12.3083H12.2916H12.2749H12.2583H12.2416H12.225H12.2083H12.1916H12.175H12.1583H12.1417H12.125H12.1083H12.0917H12.075H12.0584H12.0417H12.025H12.0084H11.9917H11.9751H11.9584H11.9417H11.9251H11.9084H11.8917H11.8751H11.8584H11.8418H11.8251H11.8084H11.7918H11.7751H11.7585H11.7418H11.7251H11.7085H11.6918H11.6752H11.6585H11.6418H11.6252H11.6085H11.5919H11.5752H11.5585H11.5419H11.5252H11.5086H11.4919H11.4752H11.4586H11.4419H11.4253H11.4086H11.3919H11.3753H11.3586H11.342H11.3253H11.3086H11.292H11.2753H11.2587H11.242H11.2253H11.2087H11.192H11.1754H11.1587H11.142H11.1254H11.1087H11.0921H11.0754H11.0587H11.0421H11.0254H11.0088H10.9921H10.9754H10.9588H10.9421H10.9255H10.9088H10.8921H10.8755H10.8588H10.8422H10.8255H10.8088H10.7922H10.7755H10.7589H10.7422H10.7255H10.7089H10.6922H10.6756H10.6589H10.6423H10.6256H10.6089H10.5923H10.5756H10.559H10.5423H10.5256H10.509H10.4923H10.4757H10.459H10.4423H10.4257H10.409H10.3924H10.3757H10.359H10.3424H10.3257H10.3091H10.2924H10.2757H10.2591H10.2424H10.2258H10.2091H10.1924H10.1758H10.1591H10.1425H10.1258H10.1091H10.0925H10.0758H10.0592H10.0425H10.0258H10.0092H9.99253H9.97587H9.95921H9.94255H9.92589H9.90923H9.89257H9.87591H9.85925H9.84259H9.82593H9.80927H9.79261H9.77595H9.75929H9.74263H9.72597H9.70931H9.69265H9.67599H9.65933H9.64268H9.62602H9.60936H9.5927H9.57604H9.55938H9.54272H9.52606H9.5094H9.49274H9.47608H9.45942H9.44276H9.4261H9.40944H9.39278H9.37612H9.35946H9.3428H9.32614H9.30949H9.29283H9.27617H9.25951H9.24285H9.22619H9.20953C9.10545 12.4952 8.96954 12.4973 8.83678 12.5308L13.688 13.6698L13.6866 13.6726L13.6188 13.8077M18.5931 13.2264L18.3446 13.1991L18.5932 13.226C18.5932 13.2261 18.5932 13.2263 18.5931 13.2264ZM18.5931 13.2264C18.5569 13.559 18.2757 13.7845 17.9563 13.8071L17.9536 13.8073L17.9536 13.8073C17.8965 13.8107 17.8297 13.8094 17.779 13.8084C17.7596 13.808 17.7425 13.8077 17.7294 13.8077H17.721H17.7127H17.7044H17.696H17.6877H17.6794H17.671H17.6627H17.6544H17.6461H17.6377H17.6294H17.6211H17.6127H17.6044H17.5961H17.5877H17.5794H17.5711H17.5628H17.5544H17.5461H17.5378H17.5294H17.5211H17.5128H17.5045H17.4961H17.4878H17.4795H17.4711H17.4628H17.4545H17.4461H17.4378H17.4295H17.4212H17.4128H17.4045H17.3962H17.3878H17.3795H17.3712H17.3628H17.3545H17.3462H17.3379H17.3295H17.3212H17.3129H17.3045H17.2962H17.2879H17.2795H17.2712H17.2629H17.2546H17.2462H17.2379H17.2296H17.2212H17.2129H17.2046H17.1962H17.1879H17.1796H17.1713H17.1629H17.1546H17.1463H17.1379H17.1296H17.1213H17.113H17.1046H17.0963H17.088H17.0796H17.0713H17.063H17.0546H17.0463H17.038H17.0297H17.0213H17.013H17.0047H16.9963H16.988H16.9797H16.9713H16.963H16.9547H16.9464H16.938H16.9297H16.9214H16.913H16.9047H16.8964H16.888H16.8797H16.8714H16.8631H16.8547H16.8464H16.8381H16.8297H16.8214H16.8131H16.8048H16.7964H16.7881H16.7798H16.7714H16.7631H16.7548H16.7464H16.7381H16.7298H16.7215H16.7131H16.7048H16.6965H16.6881H16.6798H16.6715H16.6631H16.6548H16.6465H16.6382H16.6298H16.6215H16.6132H16.6048H16.5965H16.5882H16.5798H16.5715H16.5632H16.5549H16.5465H16.5382H16.5299H16.5215H16.5132H16.5049H16.4966H16.4882H16.4799H16.4716H16.4632H16.4549H16.4466H16.4382H16.4299H16.4216H16.4133H16.4049H16.3966H16.3883H16.3799H16.3716H16.3633H16.3549H16.3466H16.3383H16.33H16.3216H16.3133H16.305H16.2966H16.2883H16.28H16.2716H16.2633H16.255H16.2467H16.2383H16.23H16.2217H16.2133H16.205H16.1967H16.1884H16.18H16.1717H16.1634H16.155H16.1467H16.1384H16.13H16.1217H16.1134H16.1051H16.0967H16.0884H16.0801H16.0717H16.0634H16.0551H16.0467H16.0384H16.0301H16.0218H16.0134H16.0051H15.9968H15.9884H15.9801H15.9718H15.9634H15.9551H15.9468H15.9385H15.9301H15.9218H15.9135H15.9051H15.8968H15.8885H15.8802H15.8718H15.8635H15.8552H15.8468H15.8385H15.8302H15.8218H15.8135H15.8052H15.7969H15.7885H15.7802H15.7719H15.7635H15.7552H15.7469H15.7385H15.7302H15.7219H15.7136H15.7052H15.6969H15.6886H15.6802H15.6719H15.6636H15.6552H15.6469H15.6386H15.6303H15.6219H15.6136H15.6053H15.5969H15.5886H15.5803H15.5719H15.5636H15.5553H15.547H15.5386H15.5303H15.522H15.5136H15.5053H15.497H15.4887H15.4803H15.472H15.4637H15.4553H15.447H15.4387H15.4303H15.422H15.4137H15.4054H15.397H15.3887H15.3804H15.372H15.3637H15.3554H15.347H15.3387H15.3304H15.3221H15.3137H15.3054H15.2971H15.2887H15.2804H15.2721H15.2637H15.2554H15.2471H15.2388H15.2304H15.2221H15.2138H15.2054H15.1971H15.1888H15.1805H15.1721H15.1638H15.1555H15.1471H15.1388H15.1305H15.1221H15.1138H15.1055H15.0972H15.0888H15.0805H15.0722H15.0638H15.0555H15.0472H15.0388H15.0305H15.0222H15.0139H15.0055H14.9972H14.9889H14.9805H14.9722H14.9639H14.9555H14.9472H14.9389H14.9306H14.9222H14.9139H14.9056H14.8972H14.8889H14.8806H14.8723H14.8639H14.8556H14.8473H14.8389H14.8306H14.8223H14.8139H14.8056H14.7973H14.789H14.7806H14.7723H14.764H14.7556H14.7473H14.739H14.7306H14.7223H14.714H14.7057H14.6973H14.689H14.6807H14.6723H14.664H14.6557H14.6473H14.639H14.6307H14.6224H14.614H14.6057H14.5974H14.589H14.5807H14.5724H14.5641H14.5557H14.5474H14.5391H14.5307H14.5224H14.5141H14.5057H14.4974H14.4891H14.4808H14.4724H14.4641H14.4558H14.4474H14.4391H14.4308H14.4224H14.4141H14.4058H14.3975H14.3891H14.3808H14.3725H14.3641H14.3558H14.3475H14.3391H14.3308H14.3225H14.3142H14.3058H14.2975H14.2892H14.2808H14.2725H14.2642H14.2559H14.2475H14.2392H14.2309H14.2225H14.2142H14.2059H14.1975H14.1892H14.1809H14.1726H14.1642H14.1559H14.1476H14.1392H14.1309H14.1226H14.1142H14.1059H14.0976H14.0893H14.0809H14.0726H14.0643H14.0559H14.0476H14.0393H14.0309H14.0226H14.0143H14.006H13.9976H13.9893H13.981H13.9726H13.9643H13.956H13.9476H13.9393H13.931H13.9227H13.9143H13.906H13.8977H13.8893H13.881H13.8727H13.8644H13.856H13.8477H13.8394H13.831H13.8227H13.8144H13.806H13.7977H13.7894H13.7811H13.7727H13.7644H13.7561H13.7477H13.7394H13.7311H13.7227H13.7144H13.7061H13.6978H13.6894H13.6811H13.6728H13.6644H13.6561H13.6478H13.6394H13.6311H13.6228H13.6188" fill="currentColor" stroke="currentColor" stroke-width="0.5"/>
<path d="M13.4522 16.319H9.25054C9.2253 16.319 9.19996 16.3193 9.17457 16.3196C9.10669 16.3204 9.03847 16.3213 8.971 16.3162C8.74904 16.298 8.59733 16.1453 8.59171 15.9408L8.34184 15.9486C8.33211 15.6407 8.568 15.3631 8.86672 15.2974L8.86818 15.297L8.86818 15.297C8.96381 15.2766 9.06688 15.2779 9.13376 15.2787C9.14527 15.2788 9.15571 15.2789 9.16485 15.2789C10.6005 15.2789 12.0357 15.2786 13.4711 15.2782C14.9064 15.2779 16.3417 15.2775 17.7774 15.2775C17.7856 15.2775 17.7946 15.2775 17.8042 15.2774C17.8733 15.2769 17.9764 15.2762 18.0741 15.297L18.0755 15.2974L18.0755 15.2974C18.3968 15.3681 18.6346 15.6819 18.596 16.0067L18.5959 16.0072C18.5777 16.1578 18.5138 16.2967 18.3992 16.4004C18.2857 16.503 18.1408 16.5547 17.9877 16.5655L8.34181 15.9476C8.35129 16.2928 8.61509 16.5378 8.95055 16.5653L8.95055 16.5653L8.95216 16.5655C9.03165 16.5715 9.1171 16.5704 9.18758 16.5695C9.21037 16.5692 9.23159 16.569 9.25054 16.569H9.25875H9.26695H9.27516H9.28337H9.29157H9.29978H9.30799H9.31619H9.3244H9.3326H9.34081H9.34902H9.35722H9.36543H9.37364H9.38184H9.39005H9.39825H9.40646H9.41467H9.42287H9.43108H9.43929H9.44749H9.4557H9.4639H9.47211H9.48032H9.48852H9.49673H9.50494H9.51314H9.52135H9.52956H9.53776H9.54597H9.55417H9.56238H9.57059H9.57879H9.587H9.59521H9.60341H9.61162H9.61982H9.62803H9.63624H9.64444H9.65265H9.66086H9.66906H9.67727H9.68547H9.69368H9.70189H9.71009H9.7183H9.72651H9.73471H9.74292H9.75112H9.75933H9.76754H9.77574H9.78395H9.79216H9.80036H9.80857H9.81677H9.82498H9.83319H9.84139H9.8496H9.85781H9.86601H9.87422H9.88243H9.89063H9.89884H9.90704H9.91525H9.92346H9.93166H9.93987H9.94808H9.95628H9.96449H9.97269H9.9809H9.98911H9.99731H10.0055H10.0137H10.0219H10.0301H10.0383H10.0466H10.0548H10.063H10.0712H10.0794H10.0876H10.0958H10.104H10.1122H10.1204H10.1286H10.1368H10.145H10.1532H10.1614H10.1696H10.1779H10.1861H10.1943H10.2025H10.2107H10.2189H10.2271H10.2353H10.2435H10.2517H10.2599H10.2681H10.2763H10.2845H10.2927H10.3009H10.3092H10.3174H10.3256H10.3338H10.342H10.3502H10.3584H10.3666H10.3748H10.383H10.3912H10.3994H10.4076H10.4158H10.424H10.4322H10.4405H10.4487H10.4569H10.4651H10.4733H10.4815H10.4897H10.4979H10.5061H10.5143H10.5225H10.5307H10.5389H10.5471H10.5553H10.5635H10.5718H10.58H10.5882H10.5964H10.6046H10.6128H10.621H10.6292H10.6374H10.6456H10.6538H10.662H10.6702H10.6784H10.6866H10.6948H10.7031H10.7113H10.7195H10.7277H10.7359H10.7441H10.7523H10.7605H10.7687H10.7769H10.7851H10.7933H10.8015H10.8097H10.8179H10.8261H10.8344H10.8426H10.8508H10.859H10.8672H10.8754H10.8836H10.8918H10.9H10.9082H10.9164H10.9246H10.9328H10.941H10.9492H10.9574H10.9657H10.9739H10.9821H10.9903H10.9985H11.0067H11.0149H11.0231H11.0313H11.0395H11.0477H11.0559H11.0641H11.0723H11.0805H11.0887H11.097H11.1052H11.1134H11.1216H11.1298H11.138H11.1462H11.1544H11.1626H11.1708H11.179H11.1872H11.1954H11.2036H11.2118H11.22H11.2283H11.2365H11.2447H11.2529H11.2611H11.2693H11.2775H11.2857H11.2939H11.3021H11.3103H11.3185H11.3267H11.3349H11.3431H11.3513H11.3596H11.3678H11.376H11.3842H11.3924H11.4006H11.4088H11.417H11.4252H11.4334H11.4416H11.4498H11.458H11.4662H11.4744H11.4826H11.4909H11.4991H11.5073H11.5155H11.5237H11.5319H11.5401H11.5483H11.5565H11.5647H11.5729H11.5811H11.5893H11.5975H11.6057H11.6139H11.6222H11.6304H11.6386H11.6468H11.655H11.6632H11.6714H11.6796H11.6878H11.696H11.7042H11.7124H11.7206H11.7288H11.737H11.7452H11.7535H11.7617H11.7699H11.7781H11.7863H11.7945H11.8027H11.8109H11.8191H11.8273H11.8355H11.8437H11.8519H11.8601H11.8683H11.8766H11.8848H11.893H11.9012H11.9094H11.9176H11.9258H11.934H11.9422H11.9504H11.9586H11.9668H11.975H11.9832H11.9914H11.9996H12.0079H12.0161H12.0243H12.0325H12.0407H12.0489H12.0571H12.0653H12.0735H12.0817H12.0899H12.0981H12.1063H12.1145H12.1227H12.1309H12.1392H12.1474H12.1556H12.1638H12.172H12.1802H12.1884H12.1966H12.2048H12.213H12.2212H12.2294H12.2376H12.2458H12.254H12.2622H12.2705H12.2787H12.2869H12.2951H12.3033H12.3115H12.3197H12.3279H12.3361H12.3443H12.3525H12.3607H12.3689H12.3771H12.3853H12.3935H12.4018H12.41H12.4182H12.4264H12.4346H12.4428H12.451H12.4592H12.4674H12.4756H12.4838H12.492H12.5002H12.5084H12.5166H12.5248H12.5331H12.5413H12.5495H12.5577H12.5659H12.5741H12.5823H12.5905H12.5987H12.6069H12.6151H12.6233H12.6315H12.6397H12.6479H12.6561H12.6644H12.6726H12.6808H12.689H12.6972H12.7054H12.7136H12.7218H12.73H12.7382H12.7464H12.7546H12.7628H12.771H12.7792H12.7874H12.7957H12.8039H12.8121H12.8203H12.8285H12.8367H12.8449H12.8531H12.8613H12.8695H12.8777H12.8859H12.8941H12.9023H12.9105H12.9187H12.927H12.9352H12.9434H12.9516H12.9598H12.968H12.9762H12.9844H12.9926H13.0008H13.009H13.0172H13.0254H13.0336H13.0418H13.05H13.0583H13.0665H13.0747H13.0829H13.0911H13.0993H13.1075H13.1157H13.1239H13.1321H13.1403H13.1485H13.1567H13.1649H13.1731H13.1813H13.1896H13.1978H13.206H13.2142H13.2224H13.2306H13.2388H13.247H13.2552H13.2634H13.2716H13.2798H13.288H13.2962H13.3044H13.3126H13.3209H13.3291H13.3373H13.3455H13.3488M13.4522 16.319L13.2756 16.496L13.277 16.4974L13.3488 16.569M13.4522 16.319V16.3218V16.569H13.4439H13.4357H13.4275H13.4193H13.4111H13.4029H13.3947H13.3865H13.3783H13.3701H13.3619H13.3537H13.3488M13.4522 16.319L13.3488 16.569M18.0218 15.5415C18.2255 15.5864 18.3702 15.7881 18.3477 15.9772C18.3238 16.1747 18.1876 16.3008 17.9698 16.3162C17.8824 16.3225 17.7949 16.3217 17.7075 16.3209C17.6784 16.3206 17.6492 16.3204 17.6201 16.3204L18.0218 15.5415Z" fill="currentColor" stroke="currentColor" stroke-width="0.5"/>
</svg>
